<svg width="25" height="25" viewBox="0 0 25 25" fill="none" xmlns="http://www.w3.org/2000/svg">
<path d="M12.5 25C5.59644 25 0 19.4035 0 12.5C0 5.59644 5.59644 0 12.5 0C19.4035 0 25 5.59644 25 12.5C25 19.4035 19.4035 25 12.5 25ZM8.61269 13.9635L8.6285 13.9535C9.35316 16.3459 9.71549 17.5421 9.71549 17.5421C9.85582 17.9303 10.0488 17.9995 10.2829 17.9679C10.5169 17.9361 10.6412 17.8095 10.7939 17.6621C10.7939 17.6621 11.2893 17.184 12.28 16.2279L15.4686 18.5873C16.0496 18.9083 16.4691 18.7426 16.6134 18.0471L18.6856 8.27051C18.9144 7.36053 18.5131 6.99555 17.8075 7.28442L5.64124 11.9839C4.81123 12.3175 4.81524 12.7819 5.49013 12.9889L8.61269 13.9635Z" fill="white"/>
</svg>
